<svg width="62" height="61" viewBox="0 0 62 61" fill="none" xmlns="http://www.w3.org/2000/svg">
<path d="M25.1749 60.1916C35.8955 60.1916 44.5862 58.5364 44.5862 56.4945C44.5862 54.4526 35.8955 52.7974 25.1749 52.7974C14.4544 52.7974 5.76367 54.4526 5.76367 56.4945C5.76367 58.5364 14.4544 60.1916 25.1749 60.1916Z" fill="#605473"/>
<path d="M7.91639 28.4853C6.53082 27.7352 5.264 26.7841 4.15554 25.6589C2.44007 23.9711 1.21284 21.8278 0.619023 19.4837C-0.212323 16.0143 0.856552 12.3573 3.41657 9.9194C4.93411 8.24498 7.15103 7.41447 9.38115 7.70917C12.1523 8.08424 14.5408 10.1739 16.2167 12.1564L13.0892 16.7376C12.2843 15.4517 11.2022 14.3666 9.93538 13.5495C9.28877 13.1745 8.52341 13.1075 7.81083 13.3486C7.11144 13.5897 6.53081 14.1255 6.2405 14.8087C4.52503 18.1039 6.96629 21.5063 9.68466 23.2879L7.91639 28.4853Z" fill="#C81E4B"/>
<path d="M49.5371 32.4902C46.9903 34.4593 43.3482 35.6381 38.6901 35.3969C35.3119 35.2094 33.3721 34.4325 32.2504 33.2671C29.2021 30.0656 32.356 23.9975 29.1098 19.5905C26.5893 16.3354 22.6174 14.6074 18.5662 14.9959C17.6425 12.7053 17.4313 10.8835 18.0647 9.82529C18.0647 9.8119 18.0647 9.8119 18.0779 9.7985V9.7851C18.1571 9.66455 18.2495 9.54399 18.3551 9.43683C21.047 6.70418 31.2739 12.6651 41.2237 22.7518C44.2456 25.7791 47.0167 29.0342 49.5371 32.4902Z" fill="#BDC3C7"/>
<path d="M53.9824 46.247C49.7993 49.9039 28.9365 66.5811 13.484 50.8952C6.54295 43.8626 6.0415 35.6915 7.91532 28.4714C8.37718 26.7032 8.971 24.9618 9.68359 23.2874C10.6601 21.0236 11.7949 18.8268 13.0881 16.7371C14.1966 14.9287 15.2919 13.3615 16.2156 12.1291C16.9809 11.1111 17.6144 10.3342 18.0762 9.79834C17.4428 10.87 17.6539 12.6783 18.5777 14.9689C20.4251 19.5903 25.1229 26.1674 31.4833 32.624C31.7208 32.8651 31.9452 33.0928 32.1827 33.3205C41.4858 42.5901 50.8946 48.1491 53.9824 46.247Z" fill="#C81E4B"/>
<path d="M49.5376 32.4902C47.0172 29.0342 44.246 25.7791 41.2374 22.7518C31.2876 12.6651 21.0607 6.70418 18.3687 9.43683C18.2632 9.54399 18.1708 9.65115 18.0916 9.7851C18.0784 9.7985 18.0784 9.7985 18.0784 9.81189C17.445 10.8835 17.6561 12.6919 18.5799 14.9825C20.4273 19.6039 25.1251 26.181 31.4855 32.6375C31.7231 32.8786 31.9474 33.1063 32.1849 33.3341C41.4881 42.5902 50.8968 48.1493 53.9847 46.2472L49.5376 32.4902Z" fill="#BDC3C7"/>
<path d="M47.2262 2.96694C49.298 5.07 49.971 7.78925 48.7306 9.04841C47.4901 10.3076 44.7981 9.62441 42.7395 7.52135C40.6677 5.41828 39.9947 2.69903 41.2352 1.43987C42.4624 0.180714 45.1544 0.863875 47.2262 2.96694Z" fill="#A3512C"/>
<path d="M26.971 46.3545C24.0151 49.3684 19.9375 50.2123 17.3379 48.5513C19.1985 46.5554 17.7866 45.0551 19.7396 43.0726C21.7322 41.0365 23.2233 42.5502 25.2291 40.5275C27.1821 38.5316 25.7569 37.0447 27.6308 35.0488C27.9343 35.2498 28.2114 35.4775 28.4621 35.732C30.943 38.2503 30.2832 43.019 26.971 46.3545Z" fill="#E09F3E"/>
<path d="M27.6431 35.0619C25.7693 37.0578 27.1812 38.5447 25.2414 40.5406C23.2356 42.5633 21.7445 41.0496 19.7519 43.0857C17.7857 45.0682 19.2109 46.5685 17.3502 48.5644C17.0467 48.3635 16.7696 48.1358 16.5189 47.8813C14.038 45.3629 14.711 40.6076 18.01 37.2588C20.9659 34.2448 25.0303 33.3875 27.6431 35.0619Z" fill="#D17333"/>
<path d="M32.2526 33.2667L32.1734 33.3471C31.9359 33.106 31.7115 32.8783 31.474 32.6505C25.1136 26.194 20.4158 19.6169 18.5684 14.9955C22.6195 14.6071 26.5915 16.3484 29.1119 19.5901C32.3581 23.9972 29.2043 30.0652 32.2526 33.2667Z" fill="#A3512C"/>
<path d="M49.5357 32.4899C47.0153 29.0339 44.2442 25.7789 41.2355 22.7515C31.2857 12.6649 21.0588 6.70394 18.3668 9.43658C18.2612 9.54374 18.1688 9.65091 18.0897 9.78486C18.0765 9.79826 18.0765 9.79826 18.0765 9.81165C17.4431 10.8833 17.6542 12.6916 18.5779 14.9822C20.4254 19.6036 25.1231 26.1807 31.4836 32.6373C31.7211 32.8784 31.9455 33.1061 32.183 33.3338C41.4862 42.59 50.8949 48.149 53.9828 46.2469C55.0781 45.4432 53.4813 42.7105 53.4813 42.7105L49.5357 32.4899ZM33.661 31.7934L32.9748 31.1102C32.2226 30.3467 31.4968 29.5831 30.7842 28.8062C26.2712 23.8901 22.6555 18.8401 20.9004 15.0224C20.7685 14.7277 20.6497 14.4464 20.5441 14.1785C20.0691 13.2141 19.8315 12.1424 19.8579 11.0708L20.0031 10.9369C20.0955 10.9235 20.1878 10.9101 20.2802 10.9101C23.3285 10.9101 31.1933 15.585 39.7443 24.2652C42.5946 27.1452 45.2207 30.2127 47.6355 33.4812L47.7015 33.6687L51.1193 44.251C48.1897 43.4473 43.1357 40.3798 37.3954 35.2895C36.1682 34.2179 34.9278 33.0391 33.661 31.7934Z" fill="#ECF0F1"/>
<path d="M61.8061 28.4312C61.6609 32.932 60.4337 37.3391 58.23 41.2639C57.1215 43.1393 55.1553 44.3315 52.9912 44.4252H52.9516C52.2654 44.4654 51.566 44.385 50.9062 44.1975C49.613 43.7689 48.3726 43.2196 47.1982 42.5231C46.4196 42.081 45.6015 41.572 44.7173 40.996C42.1441 39.268 39.6897 37.3659 37.3672 35.2762C37.7763 35.3164 38.2117 35.3566 38.6736 35.3834C43.3318 35.6245 46.9738 34.4457 49.5207 32.4766C53.8489 29.3019 55.0234 23.2606 52.1863 18.6526C47.7788 11.1379 62.677 11.0307 61.8061 28.4312Z" fill="#A3512C"/>
<path opacity="0.5" d="M54.1827 37.7547C52.3485 39.9917 49.9336 41.6394 47.2152 42.5368C46.4367 42.0948 45.6185 41.5858 44.7344 41.0098C47.7827 40.4204 50.5406 38.7862 52.5464 36.3884C52.9159 35.933 53.5889 35.866 54.0376 36.2544C54.4994 36.6161 54.5522 37.2859 54.1827 37.7547Z" fill="#441708"/>
</svg>
