<!-- Generator: Adobe Illustrator 25.4.0, SVG Export Plug-In . SVG Version: 6.00 Build 0)  -->
<svg version="1.1" id="Layer_1" xmlns="http://www.w3.org/2000/svg" xmlns:xlink="http://www.w3.org/1999/xlink" x="0px" y="0px"
	 viewBox="0 0 75.62 87.07" style="enable-background:new 0 0 75.62 87.07;" xml:space="preserve">
<style type="text/css">
	.st0{fill:#FF366C;}
	.st1{enable-background:new    ;}
	.st2{fill:#FFFFFF;}
</style>
<g id="Group_5569" transform="translate(320 303.693)">
	<path id="Path_6102" class="st0" d="M-244.38-293.69v54c0,5.52-4.48,10-10,10h-49.7l-12.51,12.49c-0.78,0.78-2.05,0.77-2.83-0.01
		c-0.37-0.37-0.58-0.88-0.58-1.4v-75.08c0-5.52,4.48-10,10-10h55.62C-248.86-303.69-244.38-299.22-244.38-293.69z"/>
	<g class="st1">
		<path class="st2" d="M-281.63-261.81c0.08,0.55,0.12,1.09,0.12,1.64c0,0.55-0.04,1.09-0.12,1.64c-0.08,0.55-0.15,0.99-0.21,1.32
			c-0.06,0.33-0.19,0.65-0.38,0.97c-0.35,0.47-0.72,0.81-1.11,1.03c-0.39,0.21-0.68,0.34-0.88,0.38c-0.04,0-0.06,0.02-0.06,0.06
			v14.47c0,0.27-0.1,0.5-0.29,0.67c-0.2,0.18-0.41,0.26-0.64,0.26h-20.92c-0.27,0-0.5-0.09-0.67-0.26s-0.26-0.4-0.26-0.67v-14.41
			c-0.12-0.04-0.23-0.08-0.35-0.12c-0.12-0.04-0.23-0.08-0.35-0.12c-0.12-0.08-0.33-0.22-0.64-0.44c-0.31-0.21-0.59-0.54-0.82-0.97
			c-0.12-0.23-0.21-0.47-0.26-0.7s-0.13-0.53-0.21-0.88c-0.08-0.43-0.16-1.02-0.23-1.76c-0.08-0.74,0-1.56,0.23-2.46
			c0-0.08,0.02-0.17,0.06-0.26c0.04-0.1,0.08-0.22,0.12-0.38c0.19-0.78,0.38-1.36,0.56-1.73c0.18-0.37,0.34-0.71,0.5-1.03
			c0.08-0.16,0.17-0.33,0.26-0.53c0.1-0.2,0.21-0.43,0.32-0.7c0-0.04,0.04-0.13,0.12-0.26c0.08-0.14,0.18-0.26,0.29-0.38
			c0.12-0.08,0.24-0.13,0.38-0.15c0.14-0.02,0.28-0.03,0.44-0.03c0.19,0,1.41,0,3.63,0s4.67,0,7.32,0c2.66,0,5.1,0,7.32,0
			c2.27,0,3.5,0,3.69,0c0.16,0,0.3,0.01,0.44,0.03c0.14,0.02,0.24,0.07,0.32,0.15c0.16,0.12,0.26,0.23,0.32,0.35s0.11,0.2,0.15,0.23
			c0.08,0.27,0.18,0.52,0.29,0.73c0.12,0.21,0.21,0.4,0.29,0.56c0.19,0.35,0.38,0.73,0.56,1.14s0.34,0.95,0.5,1.61
			c0.04,0.16,0.07,0.31,0.09,0.47C-281.7-262.18-281.67-262-281.63-261.81z M-307.76-257.94c0.04,0.35,0.21,0.65,0.5,0.91
			c0.29,0.25,0.65,0.4,1.08,0.44h0.06c0.35,0,0.69-0.12,1.03-0.35c0.33-0.23,0.52-0.55,0.56-0.94c0-0.39,0-0.79,0-1.2s0-0.81,0-1.2
			c0-0.16,0-0.31,0-0.47c0-0.16,0-0.31,0-0.47h-3.22c0,0.16,0,0.31,0,0.47c0,0.16,0,0.29,0,0.41c0,0.43,0,0.84,0,1.23
			C-307.76-258.72-307.76-258.33-307.76-257.94z M-307.18-263.51l-0.12,0.35h23.26c-0.04-0.08-0.08-0.17-0.12-0.26
			c-0.04-0.1-0.08-0.18-0.12-0.26c-0.12-0.27-0.23-0.55-0.35-0.82c-0.12-0.27-0.22-0.55-0.29-0.82c-0.04-0.16-0.1-0.26-0.18-0.32
			c-0.08-0.06-0.22-0.09-0.41-0.09c-1.99,0.04-3.98,0.06-5.98,0.06s-4,0-6.04,0h-4.34c-0.7,0-1.4,0-2.08,0c-0.68,0-1.38,0-2.08,0
			c-0.04,0-0.14,0.02-0.29,0.06c-0.16,0.35-0.3,0.69-0.44,1.03c-0.14,0.33-0.28,0.67-0.44,1.03V-263.51z M-286.14-241.24v-13.59
			c-0.43-0.12-0.79-0.27-1.08-0.47c-0.29-0.2-0.5-0.35-0.62-0.47c-0.39,0.35-0.81,0.62-1.26,0.82c-0.45,0.2-0.89,0.29-1.32,0.29
			h-0.06c-0.47,0-0.93-0.1-1.38-0.29c-0.45-0.2-0.85-0.47-1.2-0.82c-0.39,0.35-0.81,0.62-1.26,0.82c-0.45,0.2-0.91,0.29-1.38,0.29
			s-0.92-0.1-1.35-0.29c-0.43-0.2-0.84-0.47-1.23-0.82c-0.39,0.35-0.8,0.62-1.23,0.79c-0.43,0.18-0.88,0.28-1.35,0.32
			c-0.47,0-0.93-0.09-1.38-0.26c-0.45-0.18-0.87-0.46-1.26-0.85c-0.27,0.23-0.56,0.43-0.85,0.59c-0.29,0.16-0.58,0.27-0.85,0.35
			v13.59h9.67v-10.14c0-0.27,0.09-0.5,0.26-0.67s0.4-0.26,0.67-0.26h5.39c0.27,0,0.5,0.09,0.67,0.26s0.26,0.4,0.26,0.67v10.14
			H-286.14z M-260.53-284.72c0.27,0,0.5,0.1,0.67,0.29c0.18,0.2,0.26,0.43,0.26,0.7v19.1c0,0.27-0.09,0.5-0.26,0.67
			s-0.4,0.26-0.67,0.26c-0.27,0-0.51-0.09-0.7-0.26c-0.2-0.18-0.29-0.4-0.29-0.67v-18.16h-10.08c-0.04,2.77-1.06,5.15-3.08,7.12
			c-2.01,1.97-4.42,2.96-7.24,2.96s-5.21-0.99-7.21-2.96c-1.99-1.97-3.01-4.37-3.05-7.18h-10.02v11.6c0,0.23-0.1,0.44-0.29,0.62
			c-0.2,0.18-0.41,0.26-0.64,0.26c-0.27,0-0.5-0.09-0.67-0.26s-0.26-0.38-0.26-0.62v-12.48c0-0.27,0.09-0.5,0.26-0.67
			s0.4-0.26,0.67-0.26h11.07c0.39-2.46,1.54-4.52,3.46-6.18c1.91-1.66,4.14-2.49,6.68-2.49c2.58,0,4.82,0.83,6.74,2.49
			c1.91,1.66,3.07,3.7,3.46,6.12H-260.53z M-297.95-247.16c0.14-0.16,0.22-0.33,0.26-0.53v-3.69c0-0.23-0.08-0.42-0.23-0.56
			c-0.16-0.14-0.33-0.21-0.53-0.21h-3.69c-0.23,0-0.42,0.07-0.56,0.21c-0.14,0.14-0.21,0.32-0.21,0.56v3.69
			c0,0.2,0.07,0.37,0.21,0.53c0.14,0.16,0.32,0.23,0.56,0.23h3.69C-298.25-246.92-298.08-247-297.95-247.16z M-299.27-257.94
			c0-0.39,0-0.78,0-1.17c0-0.39,0-0.8,0-1.23c0-0.12,0-0.25,0-0.41c0-0.16,0-0.31,0-0.47h-3.28v0.88c-0.04,0.35-0.06,0.71-0.06,1.08
			c0,0.37,0.02,0.73,0.06,1.08c0,0.43,0.16,0.79,0.47,1.08c0.31,0.29,0.68,0.46,1.11,0.5c0.43,0,0.81-0.14,1.14-0.41
			C-299.49-257.27-299.3-257.59-299.27-257.94z M-301.43-250.62h2.23v2.17h-2.23V-250.62z M-293.99-259.17c0-0.39,0-0.78,0-1.17
			c-0.04-0.16-0.06-0.3-0.06-0.44c0-0.14,0-0.28,0-0.44h-3.28c0,0.16,0,0.3,0,0.44c0,0.14,0,0.28,0,0.44c0,0.39,0,0.77,0,1.14
			c0,0.37,0,0.73,0,1.08c0.04,0.43,0.21,0.79,0.53,1.08c0.31,0.29,0.68,0.44,1.11,0.44c0.43,0,0.8-0.15,1.11-0.44
			c0.31-0.29,0.49-0.63,0.53-1.03C-294.01-258.41-293.99-258.78-293.99-259.17z M-290.12-250.44h-3.52v9.2h3.52V-250.44z
			 M-288.84-258c0.04-0.39,0.06-0.77,0.06-1.14c0-0.37-0.02-0.77-0.06-1.2c0-0.12,0-0.25,0-0.41c0-0.16,0-0.31,0-0.47h-3.28v0.82
			c0,0.35,0,0.7,0,1.05s0,0.72,0,1.11c0.04,0.43,0.19,0.8,0.47,1.11c0.27,0.31,0.64,0.49,1.11,0.53c0.19,0,0.4-0.03,0.62-0.09
			c0.21-0.06,0.4-0.17,0.56-0.32c0.16-0.12,0.28-0.26,0.38-0.44C-288.88-257.62-288.84-257.8-288.84-258z M-275.94-277.04
			c1.64-1.64,2.46-3.63,2.46-5.98c0-2.3-0.82-4.28-2.46-5.92s-3.63-2.46-5.98-2.46c-2.31,0-4.29,0.82-5.95,2.46
			c-1.66,1.64-2.49,3.61-2.49,5.92c0,2.34,0.83,4.34,2.49,5.98c1.66,1.64,3.64,2.46,5.95,2.46
			C-279.58-274.58-277.59-275.4-275.94-277.04z M-283.62-257.76c0-0.43,0-0.85,0-1.26s0-0.83,0-1.26c0-0.16,0-0.31,0-0.47
			c0-0.16,0-0.31,0-0.47h-3.22v0.88c0,0.39,0,0.77,0,1.14c0,0.37,0,0.75,0,1.14c0.04,0.35,0.19,0.67,0.47,0.97
			c0.27,0.29,0.62,0.46,1.05,0.5c0.19,0,0.4-0.03,0.62-0.09c0.21-0.06,0.42-0.17,0.62-0.32c0.12-0.12,0.21-0.23,0.29-0.35
			C-283.72-257.47-283.66-257.61-283.62-257.76z M-284.91-256.42c-0.08-0.04-0.14-0.06-0.18-0.06c-0.04,0-0.08,0-0.12,0
			c-0.04,0-0.09,0-0.15,0s-0.11,0.02-0.15,0.06c0.04,0,0.08,0,0.12,0c0.08,0,0.16,0,0.23,0
			C-285.07-256.42-284.99-256.42-284.91-256.42z M-285.2-256.47c0.04,0,0.08,0,0.12,0c0.04,0,0.1,0.02,0.18,0.06
			c-0.08,0-0.16,0-0.23,0c-0.08,0-0.16,0-0.23,0c-0.04,0-0.08,0-0.12,0c0.04-0.04,0.09-0.06,0.15-0.06S-285.24-256.47-285.2-256.47z
			 M-285.2-256.47c0.04,0,0.08,0,0.12,0c0.04,0,0.1,0.02,0.18,0.06c-0.08,0-0.16,0-0.23,0c-0.08,0-0.16,0-0.23,0
			c-0.04,0-0.08,0-0.12,0c0.04-0.04,0.09-0.06,0.15-0.06S-285.24-256.47-285.2-256.47z M-285.2-256.47c0.04,0,0.08,0,0.12,0
			c0.04,0,0.1,0.02,0.18,0.06c-0.08,0-0.16,0-0.23,0c-0.08,0-0.16,0-0.23,0c-0.04,0-0.08,0-0.12,0c0.04-0.04,0.09-0.06,0.15-0.06
			S-285.24-256.47-285.2-256.47z M-285.2-256.47c0.04,0,0.08,0,0.12,0c0.04,0,0.1,0.02,0.18,0.06c-0.08,0-0.16,0-0.23,0
			c-0.08,0-0.16,0-0.23,0c-0.04,0-0.08,0-0.12,0c0.04-0.04,0.09-0.06,0.15-0.06S-285.24-256.47-285.2-256.47z M-285.2-256.47
			c0.04,0,0.08,0,0.12,0c0.04,0,0.1,0.02,0.18,0.06c-0.08,0-0.16,0-0.23,0c-0.08,0-0.16,0-0.23,0c-0.04,0-0.08,0-0.12,0
			c0.04-0.04,0.09-0.06,0.15-0.06S-285.24-256.47-285.2-256.47z M-285.38-256.42c0.08,0,0.16,0,0.23,0c0.08,0,0.16,0,0.23,0
			c-0.08-0.04-0.14-0.06-0.18-0.06c-0.04,0-0.08,0-0.12,0c-0.04,0-0.09,0-0.15,0s-0.11,0.02-0.15,0.06
			C-285.46-256.42-285.42-256.42-285.38-256.42z M-278.93-280.91c0.04-0.39,0-0.77-0.12-1.14c-0.12-0.37-0.29-0.71-0.53-1.03
			c-0.23-0.27-0.52-0.5-0.85-0.67c-0.33-0.18-0.69-0.26-1.08-0.26h-0.76c-0.12,0-0.23-0.03-0.32-0.09c-0.1-0.06-0.19-0.13-0.26-0.21
			c-0.04-0.08-0.08-0.18-0.12-0.29c-0.04-0.12-0.06-0.23-0.06-0.35c0.04-0.2,0.14-0.37,0.29-0.53c0.16-0.16,0.33-0.23,0.53-0.23
			h0.88c0.12,0,0.22,0.04,0.32,0.12c0.1,0.08,0.15,0.18,0.15,0.29c0,0.08,0.05,0.16,0.15,0.23c0.1,0.08,0.19,0.12,0.26,0.12h1
			c0.04,0,0.09-0.01,0.15-0.03c0.06-0.02,0.11-0.05,0.15-0.09c0.04-0.04,0.07-0.07,0.09-0.09c0.02-0.02,0.03-0.05,0.03-0.09
			c0-0.04,0-0.1,0-0.18c-0.04-0.55-0.23-1.03-0.59-1.44s-0.8-0.67-1.35-0.79v-0.88c0.04-0.12,0.02-0.22-0.06-0.32
			c-0.08-0.1-0.2-0.15-0.35-0.15h-1.05c-0.08,0-0.16,0.05-0.23,0.15c-0.08,0.1-0.12,0.19-0.12,0.26v0.94
			c-0.66,0.2-1.19,0.59-1.58,1.17c-0.39,0.59-0.55,1.21-0.47,1.88c0.04,0.74,0.32,1.36,0.85,1.85c0.53,0.49,1.14,0.75,1.85,0.79
			h0.64c0.12,0,0.22,0.02,0.32,0.06c0.1,0.04,0.17,0.1,0.21,0.18c0.08,0.12,0.14,0.23,0.18,0.32c0.04,0.1,0.06,0.23,0.06,0.38
			c-0.04,0.2-0.14,0.36-0.29,0.5c-0.16,0.14-0.33,0.21-0.53,0.21h-0.88c-0.12,0-0.22-0.04-0.29-0.12c-0.08-0.08-0.14-0.18-0.18-0.29
			c0-0.08-0.05-0.16-0.15-0.23c-0.1-0.08-0.19-0.12-0.26-0.12h-1c-0.04,0-0.09,0.01-0.15,0.03c-0.06,0.02-0.11,0.05-0.15,0.09
			c-0.04,0.04-0.07,0.08-0.09,0.12c-0.02,0.04-0.03,0.08-0.03,0.12c0,0.04,0,0.07,0,0.09c0,0.02,0,0.05,0,0.09
			c0.04,0.55,0.23,1.03,0.59,1.44s0.8,0.67,1.35,0.79v0.82c-0.04,0.12-0.01,0.23,0.09,0.35c0.1,0.12,0.21,0.18,0.32,0.18h1
			c0.04,0,0.09-0.02,0.15-0.06c0.06-0.04,0.11-0.08,0.15-0.12c0.04-0.04,0.07-0.09,0.09-0.15c0.02-0.06,0.03-0.11,0.03-0.15v-0.94
			c0.59-0.16,1.06-0.46,1.44-0.91C-279.18-279.74-278.97-280.28-278.93-280.91z M-253.8-256.77c0.08,0.43,0.12,0.86,0.12,1.29
			c0,0.43-0.02,0.86-0.06,1.29c-0.08,0.43-0.15,0.78-0.21,1.05c-0.06,0.27-0.17,0.53-0.32,0.76c-0.23,0.31-0.49,0.56-0.76,0.73
			c-0.27,0.18-0.49,0.28-0.64,0.32v11.02c0,0.27-0.1,0.5-0.29,0.67c-0.2,0.18-0.43,0.26-0.7,0.26h-15.94c-0.27,0-0.5-0.09-0.67-0.26
			s-0.26-0.4-0.26-0.67v-10.96c-0.08,0-0.15-0.01-0.21-0.03c-0.06-0.02-0.11-0.05-0.15-0.09c-0.12-0.04-0.29-0.15-0.53-0.32
			s-0.45-0.44-0.64-0.79c-0.12-0.2-0.2-0.38-0.23-0.56c-0.04-0.18-0.1-0.4-0.18-0.67c-0.04-0.35-0.09-0.81-0.15-1.38
			c-0.06-0.57-0.01-1.2,0.15-1.9c0.04-0.08,0.06-0.15,0.06-0.21s0.02-0.15,0.06-0.26v-0.06c0.19-0.59,0.36-1.03,0.5-1.32
			c0.14-0.29,0.24-0.56,0.32-0.79c0.08-0.12,0.16-0.24,0.23-0.38c0.08-0.14,0.16-0.32,0.23-0.56c0-0.04,0.03-0.12,0.09-0.23
			s0.17-0.21,0.32-0.29c0.08-0.08,0.18-0.13,0.29-0.15c0.12-0.02,0.25-0.03,0.41-0.03c0.12,0,1.03,0,2.75,0c1.68,0,3.53,0,5.57,0
			c2.03,0,3.91,0,5.62,0c1.72,0,2.64,0,2.75,0c0.16,0,0.29,0.01,0.41,0.03c0.12,0.02,0.21,0.07,0.29,0.15
			c0.12,0.08,0.21,0.18,0.26,0.29s0.11,0.2,0.15,0.23c0.08,0.2,0.15,0.37,0.21,0.53c0.06,0.16,0.13,0.29,0.21,0.41
			c0.16,0.27,0.3,0.57,0.44,0.88c0.14,0.31,0.26,0.74,0.38,1.29c0.04,0.08,0.07,0.18,0.09,0.29
			C-253.81-257.06-253.8-256.92-253.8-256.77z M-271.93-253.08c0.25-0.16,0.38-0.37,0.38-0.64c0.04-0.31,0.06-0.62,0.06-0.91
			s0-0.62,0-0.97c0-0.08-0.01-0.16-0.03-0.23c-0.02-0.08-0.03-0.18-0.03-0.29h-2.17c0,0.12,0,0.21,0,0.29c0,0.08,0,0.16,0,0.23
			c0,0.31,0,0.62,0,0.91s0,0.6,0,0.91c0.04,0.23,0.16,0.44,0.35,0.62c0.19,0.18,0.43,0.26,0.7,0.26
			C-272.43-252.86-272.19-252.92-271.93-253.08z M-273.25-258l-0.06,0.12h17.34l-0.06-0.18c-0.08-0.23-0.16-0.46-0.23-0.67
			c-0.08-0.21-0.16-0.42-0.23-0.62c-0.04-0.08-0.08-0.14-0.12-0.18c-0.04-0.04-0.12-0.06-0.23-0.06c-1.52,0.04-3.05,0.06-4.57,0.06
			s-3.05,0-4.57,0h-6.5h-0.12c-0.12,0.27-0.23,0.54-0.32,0.79C-273.03-258.48-273.13-258.23-273.25-258z M-257.55-241.24v-10.08
			c-0.27-0.08-0.5-0.18-0.67-0.29s-0.32-0.21-0.44-0.29c-0.27,0.27-0.59,0.47-0.94,0.59s-0.7,0.18-1.05,0.18s-0.69-0.07-1.03-0.21
			c-0.33-0.14-0.64-0.32-0.91-0.56c-0.31,0.23-0.64,0.42-0.97,0.56c-0.33,0.14-0.67,0.21-1.03,0.21c-0.39,0-0.75-0.07-1.08-0.21
			c-0.33-0.14-0.65-0.32-0.97-0.56c-0.27,0.23-0.58,0.42-0.91,0.56c-0.33,0.14-0.67,0.21-1.03,0.21s-0.69-0.06-1.03-0.18
			c-0.33-0.12-0.65-0.31-0.97-0.59c-0.2,0.12-0.38,0.23-0.56,0.35s-0.36,0.2-0.56,0.23v10.08h7.09v-7.97c0-0.23,0.09-0.45,0.26-0.64
			c0.18-0.2,0.4-0.29,0.67-0.29h4.1c0.27,0,0.5,0.1,0.67,0.29c0.18,0.2,0.26,0.41,0.26,0.64v7.97H-257.55z M-266.22-245.72
			c0.12-0.14,0.18-0.28,0.18-0.44v-3.05c0-0.16-0.06-0.3-0.18-0.44c-0.12-0.14-0.27-0.21-0.47-0.21h-2.99
			c-0.2,0-0.35,0.07-0.47,0.21c-0.12,0.14-0.18,0.28-0.18,0.44v3.05c0,0.16,0.06,0.3,0.18,0.44c0.12,0.14,0.27,0.21,0.47,0.21h2.99
			C-266.49-245.52-266.34-245.58-266.22-245.72z M-267.51-255.6c0-0.08,0-0.16,0-0.23c0-0.08,0-0.18,0-0.29h-2.23v0.53
			c0,0.27,0,0.55,0,0.82c0,0.27,0,0.55,0,0.82c0.04,0.31,0.16,0.57,0.35,0.76c0.19,0.2,0.45,0.29,0.76,0.29
			c0.23,0.04,0.47-0.03,0.7-0.21s0.37-0.4,0.41-0.67c0-0.27,0.01-0.57,0.03-0.88C-267.46-254.97-267.47-255.28-267.51-255.6z
			 M-269.03-248.56h1.7v1.7h-1.7V-248.56z M-263.52-253.84c0.04-0.27,0.06-0.56,0.06-0.85s0-0.59,0-0.91c0-0.08,0-0.17,0-0.26
			c0-0.1,0-0.18,0-0.26h-2.29c0,0.08,0,0.17,0,0.26c0,0.1,0,0.19,0,0.26c0,0.27,0,0.56,0,0.85s0,0.58,0,0.85
			c0.04,0.27,0.17,0.51,0.38,0.7c0.21,0.2,0.46,0.29,0.73,0.29h0.06c0.27,0,0.52-0.09,0.73-0.26
			C-263.63-253.34-263.52-253.56-263.52-253.84z M-260.48-248.27h-2.23v7.03h2.23V-248.27z M-259.54-253.84
			c0.04-0.27,0.06-0.56,0.06-0.85s0-0.59,0-0.91c0-0.08,0-0.16,0-0.23c0-0.08-0.02-0.18-0.06-0.29h-2.17v0.47
			c0,0.27-0.01,0.55-0.03,0.82c-0.02,0.27-0.01,0.55,0.03,0.82c0,0.31,0.1,0.58,0.29,0.79c0.19,0.21,0.45,0.32,0.76,0.32
			c0.12,0.04,0.24,0.03,0.38-0.03c0.14-0.06,0.26-0.13,0.38-0.21c0.12-0.08,0.21-0.18,0.26-0.29S-259.54-253.68-259.54-253.84z
			 M-255.55-253.66c0.04-0.31,0.06-0.62,0.06-0.94c0-0.31-0.02-0.62-0.06-0.94v-0.59h-2.17v0.53c0,0.31,0,0.62,0,0.91s0,0.58,0,0.85
			c0,0.23,0.1,0.45,0.29,0.64c0.19,0.2,0.43,0.29,0.7,0.29c0.16,0.04,0.31,0.03,0.47-0.03c0.16-0.06,0.29-0.13,0.41-0.21
			c0.08-0.08,0.15-0.16,0.21-0.23C-255.58-253.45-255.55-253.54-255.55-253.66z"/>
	</g>
</g>
</svg>
