<!-- Generator: Adobe Illustrator 23.1.1, SVG Export Plug-In . SVG Version: 6.00 Build 0)  -->
<svg version="1.1" id="Capa_1" xmlns="http://www.w3.org/2000/svg" xmlns:xlink="http://www.w3.org/1999/xlink" x="0px" y="0px"
	 viewBox="0 0 81 93" style="enable-background:new 0 0 81 93;" xml:space="preserve">
<style type="text/css">
	.st0{fill:#FF366C;}
	.st1{fill:none;stroke:#F6F8FF;stroke-width:1.98;stroke-linecap:round;stroke-linejoin:round;}
</style>
<path class="st0" d="M80.7,10.8v57.5c0,5.9-4.8,10.6-10.7,10.7H17.2L3.9,92.2C3.1,93,1.8,93.1,1,92.3c0,0-0.1-0.1-0.1-0.1
	c-0.4-0.4-0.6-0.9-0.6-1.5v-80C0.3,4.9,5,0.2,10.9,0.1h59.2C76,0.2,80.7,4.9,80.7,10.8z"/>
<path class="st1" d="M53.3,23.7c0.4,0.7,0.7,1.4,0.8,2.1c0.1,0.5,0.2,1,0.2,1.5v25.1c0,6.1,6,6.8,6,6.8H33.9c0,0-6-0.8-6-6.8v-25
	c0-1.3-0.3-2.6-1-3.7c-1.2-1.7-3-2.9-5.1-3.1l25.7,0.2c1.4,0,2.8,0.4,4,1.1C52.2,22.4,52.8,23,53.3,23.7z"/>
<line class="st1" x1="32.6" y1="29.6" x2="39" y2="29.6"/>
<line class="st1" x1="32.6" y1="35.9" x2="47.8" y2="35.9"/>
<line class="st1" x1="32.6" y1="42.2" x2="48.8" y2="42.2"/>
<polyline class="st1" points="41.2,51.1 43.8,53.7 48.9,48.6 "/>
<path class="st0" d="M46.7,20.9l0.2-0.1"/>
</svg>
