<!-- Generator: Adobe Illustrator 23.1.1, SVG Export Plug-In . SVG Version: 6.00 Build 0)  -->
<svg version="1.1" id="Capa_1" xmlns="http://www.w3.org/2000/svg" xmlns:xlink="http://www.w3.org/1999/xlink" x="0px" y="0px"
	 viewBox="0 0 98 76" style="enable-background:new 0 0 98 76;" xml:space="preserve">
<style type="text/css">
	.st0{fill:#FF366C;}
	.st1{fill:none;stroke:#FFFFFF;stroke-width:1.98;stroke-linecap:round;stroke-linejoin:round;}
</style>
<path id="Trazado_4341" class="st0" d="M0.2,10.5v42c0,5.5,4.5,10,10,10h71.7L94.4,75c0.8,0.8,2,0.8,2.8,0c0,0,0,0,0,0
	c0.4-0.4,0.6-0.9,0.6-1.4V10.5c0-5.5-4.5-10-10-10H10.2C4.7,0.5,0.2,5,0.2,10.5z"/>
<line id="Línea_326" class="st1" x1="54.1" y1="20.3" x2="70.5" y2="20.3"/>
<line id="Línea_327" class="st1" x1="54.1" y1="27.6" x2="66.2" y2="27.6"/>
<line id="Línea_328" class="st1" x1="54.1" y1="34.9" x2="61.8" y2="34.9"/>
<line id="Línea_329" class="st1" x1="54.1" y1="42.3" x2="57.5" y2="42.3"/>
<path id="Trazado_4344" class="st1" d="M46,20.3c-0.5,0.1-23,11-23,11h17.5L46,20.3z"/>
<path id="Trazado_4345" class="st1" d="M46,42.3c-0.5-0.1-23-11-23-11h17.5L46,42.3z"/>
</svg>
