<svg id="Layer_1" data-name="Layer 1"
  xmlns="http://www.w3.org/2000/svg" viewBox="0 0 1208 272.9">
  <defs>
    <style>.cls-1{fill:#00adce;}.cls-2{fill:#fff;}.cls-3{fill:#575756;}</style>
  </defs>
  <title>HS-logo</title>
  <path class="cls-1" d="M12,8V188.5l19.6-11.3L50,166.5l20.8-12,.3-.1a3.55,3.55,0,0,1,.9-.4c.3-.1.5-.2.8-.3s.6-.1.9-.2.6-.1.9-.1h1.8c.3,0,.6.1.9.1s.6.1.9.2.5.2.8.3.6.3.9.4l.3.1,20.8,12,18.5,10.7,19.6,11.3V8H12"/>
  <path class="cls-1" d="M100.8,187.9,80,175.9l-.1-.1a9,9,0,0,0-9.1.1L50,187.9,31.5,198.6,12,209.9v52H138.9v-52l-19.6-11.3-18.5-10.7"/>
  <path class="cls-2" d="M138.9,209.9l-19.6-11.3-18.5-10.7L80,175.9l-.1-.1a9,9,0,0,0-9.1.1L50,187.9,31.5,198.6,12,209.9V188.5l19.6-11.3L50,166.5l20.8-12,.3-.1a3.55,3.55,0,0,1,.9-.4c.3-.1.5-.2.8-.3s.6-.1.9-.2.6-.1.9-.1h1.8c.3,0,.6.1.9.1s.6.1.9.2.5.2.8.3.6.3.9.4l.3.1,20.8,12,18.5,10.7,19.6,11.3v21.4"/>
  <path class="cls-3" d="M180.3,203.2c0,3.9-1.8,5.9-4.6,5.9s-4.7-2-4.7-5.9V133.8c0-3.9,1.8-6,4.7-6s4.6,2,4.6,6v30.3h39.6V133.8c0-3.9,1.8-6,4.6-6s4.7,2,4.7,6v69.4c0,3.9-1.8,5.9-4.7,5.9s-4.6-2-4.6-5.9V172.7H180.3v30.5Z"/>
  <path class="cls-3" d="M250.6,203.9c0,3.3-1.8,5.3-4.6,5.3s-4.6-2-4.6-5.3V133.2c0-3.3,1.8-5.3,4.6-5.3s4.6,2,4.6,5.3Z"/>
  <path class="cls-3" d="M272.2,203.9c0,3.3-1.8,5.3-4.6,5.3s-4.6-2-4.6-5.3V134c0-3,1.5-5.4,5-5.4h18.4c15.1,0,24.4,11.2,24.4,25.1s-10.3,24.9-24.1,24.9H272.3v25.3Zm0-33.8h13.7c9.2,0,15.4-7.3,15.4-16.4,0-7.9-4.2-16.6-15.8-16.6H272.2v33Z"/>
  <path class="cls-3" d="M347.7,127.9c21.4,0,32.9,19.9,32.9,40.6s-11.5,40.6-32.9,40.6-32.9-19.9-32.9-40.6S326.3,127.9,347.7,127.9Zm0,72.8c16.9,0,23-16.8,23-32.1s-6.1-32.1-23-32.1-23,16.8-23,32.1S330.8,200.7,347.7,200.7Z"/>
  <path class="cls-3" d="M402.7,137.8h-14c-2.6,0-4.5-1.5-4.5-4.6s1.9-4.6,4.5-4.6H426c2.6,0,4.5,1.5,4.5,4.6s-1.9,4.6-4.5,4.6H412v66.1c0,3.3-1.8,5.3-4.6,5.3s-4.6-2-4.6-5.3V137.8Z"/>
  <path class="cls-3" d="M446.2,199.3h22.4a4.25,4.25,0,0,1,4.6,4.6c0,3.1-1.9,4.6-4.6,4.6H441.9c-3.5,0-5-2.4-5-5.4V134c0-3,1.5-5.4,5-5.4h26.7a4.25,4.25,0,0,1,4.6,4.6c0,3.2-1.9,4.6-4.6,4.6H446.2V164h20.4c2.6,0,4.5,1.5,4.5,4.6s-1.9,4.6-4.5,4.6H446.2Z"/>
  <path class="cls-3" d="M513.8,200.7c11.3,0,16.2-7.2,20.2-7.2,2.2,0,3.7,1.8,3.7,4.6,0,5-10.7,11.1-23.9,11.1-21.7,0-32.9-19.9-32.9-40.6S492.1,128,514.3,128c13.3,0,21.7,7.6,21.7,11.7,0,2.6-1.5,4.7-3.8,4.7-4.2,0-6.3-7.9-17.9-7.9-16.7,0-23.5,16.8-23.5,32.1S497.9,200.7,513.8,200.7Z"/>
  <path class="cls-3" d="M550.2,205.5c-.7,2.1-2,3.7-4.5,3.7a4.15,4.15,0,0,1-4.4-4.2,23.39,23.39,0,0,1,1.3-4.9L565.9,134c1.2-3.5,3.1-6.1,6.7-6.1s5.5,2.6,6.7,6.1l23.3,66.1a23.39,23.39,0,0,1,1.3,4.9,4.18,4.18,0,0,1-4.5,4.2c-2.5,0-3.8-1.6-4.5-3.7L590,191.1H555.2Zm22.4-66.1h-.2l-14.5,43.2H587Z"/>
  <path class="cls-3" d="M620.2,203.9c0,3.3-1.8,5.3-4.6,5.3s-4.6-2-4.6-5.3V134c0-3,1.5-5.4,5-5.4h17.2c11.8,0,23,8.5,23,21.5,0,16.2-9.3,22.2-20.5,22.7l-4,.1,24,28a6.18,6.18,0,0,1,1.8,4.5,4,4,0,0,1-4.2,3.8,5.15,5.15,0,0,1-4.2-2.3l-28.7-33.4v30.4Zm0-38.4h12.7c9.7,0,13.9-4.4,13.9-14.7,0-7.4-5.5-13.7-14.1-13.7H620.2v28.4Z"/>
  <path class="cls-3" d="M675,203.9c0,3.3-1.8,5.3-4.6,5.3s-4.7-2-4.7-5.3V133.2c0-3.3,1.8-5.3,4.7-5.3s4.6,2,4.6,5.3Z"/>
  <path class="cls-3" d="M717.3,127.9c21.4,0,32.9,19.9,32.9,40.6s-11.5,40.6-32.9,40.6-32.9-19.9-32.9-40.6S695.8,127.9,717.3,127.9Zm0,72.8c16.9,0,23-16.8,23-32.1s-6.1-32.1-23-32.1-23,16.8-23,32.1S700.4,200.7,717.3,200.7Z"/>
  <path class="cls-3" d="M823.4,137.2a4.17,4.17,0,0,1-4,4.4c-4.1,0-5.5-5.2-14.8-5.2-6.9,0-11.9,4.6-11.9,11.3,0,17.6,35.7,9.2,35.7,36.1,0,13.2-9.1,25.3-25.4,25.3-9.9,0-20.9-4-20.9-9.7,0-2.7,1.3-5,3.9-5,3.2,0,7.6,6.2,17.1,6.2s15.4-7.4,15.4-16.3c0-19-35.7-9.8-35.7-35.9,0-9.3,8.2-20.5,22.2-20.5C814.3,127.9,823.4,132.1,823.4,137.2Z"/>
  <path class="cls-3" d="M846,199.3h22.4c2.6,0,4.5,1.5,4.5,4.6s-1.9,4.6-4.5,4.6H841.7c-3.5,0-4.9-2.4-4.9-5.4V134c0-3,1.5-5.4,4.9-5.4h26.7c2.6,0,4.5,1.5,4.5,4.6s-1.9,4.6-4.5,4.6H846V164h20.4c2.6,0,4.5,1.5,4.5,4.6s-1.9,4.6-4.5,4.6H846Z"/>
  <path class="cls-3" d="M923.4,171.9c-2.6,0-4.5-1.5-4.5-4.6s1.9-4.6,4.5-4.6H939c4.8,0,6.7,1.9,6.7,8.1,0,19.3-6.6,38.4-32.1,38.4-21.6,0-32.9-19.9-32.9-40.6S891.5,128,915,128c15.4,0,25.8,8.5,25.8,12.8a4.45,4.45,0,0,1-4.4,4.7c-4.6,0-8.5-9-21.9-9-16.9,0-23.8,16.8-23.8,32.1s6.7,32.1,24.2,32.1c14.6,0,21.6-13.2,21.6-24V172H923.4Z"/>
  <path class="cls-3" d="M954,133.2c0-3.3,1.8-5.3,4.6-5.3s4.7,2,4.7,5.3v47.5c0,12.6,8,20,19.8,20s19.8-7.4,19.8-20V133.2c0-3.3,1.8-5.3,4.6-5.3s4.6,2,4.6,5.3v43.7c0,26.9-16.2,32.3-29.1,32.3s-29.1-5.4-29.1-32.3V133.2Z"/>
  <path class="cls-3" d="M1033.7,203.9c0,3.3-1.8,5.3-4.7,5.3s-4.6-2-4.6-5.3V134c0-3,1.5-5.4,5-5.4h17.2c11.8,0,23,8.5,23,21.5,0,16.2-9.3,22.2-20.5,22.7l-4,.1,24,28a6.18,6.18,0,0,1,1.8,4.5,4,4,0,0,1-4.2,3.8,5.15,5.15,0,0,1-4.2-2.3l-28.7-33.4v30.4Zm0-38.4h12.7c9.7,0,13.9-4.4,13.9-14.7,0-7.4-5.5-13.7-14.1-13.7h-12.4v28.4Z"/>
  <path class="cls-3" d="M1109.3,127.9c21.4,0,32.9,19.9,32.9,40.6s-11.5,40.6-32.9,40.6-32.9-19.9-32.9-40.6S1087.9,127.9,1109.3,127.9Zm0,72.8c16.9,0,23-16.8,23-32.1s-6.1-32.1-23-32.1-23,16.8-23,32.1S1092.4,200.7,1109.3,200.7Z"/>
  <path class="cls-3" d="M1189.1,137.2a4.17,4.17,0,0,1-4,4.4c-4.1,0-5.5-5.2-14.8-5.2-6.9,0-11.9,4.6-11.9,11.3,0,17.6,35.7,9.2,35.7,36.1,0,13.2-9.1,25.3-25.4,25.3-9.9,0-20.9-4-20.9-9.7,0-2.7,1.3-5,3.9-5,3.2,0,7.6,6.2,17.1,6.2s15.4-7.4,15.4-16.3c0-19-35.6-9.8-35.6-35.9,0-9.3,8.2-20.5,22.2-20.5C1179.9,127.9,1189.1,132.1,1189.1,137.2Z"/>
</svg>
