<!-- Generator: Adobe Illustrator 23.1.1, SVG Export Plug-In . SVG Version: 6.00 Build 0)  -->
<svg version="1.1" id="Capa_1" xmlns="http://www.w3.org/2000/svg" xmlns:xlink="http://www.w3.org/1999/xlink" x="0px" y="0px"
	 viewBox="0 0 130 136" style="enable-background:new 0 0 130 136;" xml:space="preserve">
<style type="text/css">
  svg-paper-plane .st0{fill:none;stroke:#857F9D;stroke-width:2;stroke-linecap:round;stroke-linejoin:round;}
	svg-paper-plane .st1{fill:#FF366C;}
</style>
<g>
	<g id="Layer_3">
		<path id="Trazado_4423" class="st0" d="M64.9,122c-22.9,13.7-44.5,17-55.8,6.6c-17.3-16.1-4.2-58.2,29.2-94.2
			c9.3-10.1,19.8-19,31.3-26.6"/>
		<path id="Trazado_4424" class="st0" d="M43.3,122.2c-5.2,2-10.7,3.1-16.3,3.3c-5.1,0-9-1.2-11.6-3.7"/>
		<path id="Trazado_4425" class="st0" d="M60.2,26.2C78.5,10.9,98,1.3,112.2,1.3c5.1,0,9,1.3,11.6,3.7c5.5,5.1,6.2,16.1,1.8,30.1"/>
		<path id="Trazado_4427" class="st1" d="M113.1,72l-54.4,29.7h24.2l3.1,15.3l6.6-9.4h0.5l15,15.2L113.1,72z"/>
		<path id="Trazado_4428" class="st0" d="M58.7,101.7L113.1,72l-30.2,29.7H58.7z"/>
		<path id="Trazado_4429" class="st0" d="M108.2,122.8l4.9-50.8l-23.8,31.8L108.2,122.8z"/>
		<path id="Trazado_4430" class="st0" d="M82.9,101.7l3.1,15.3l3.3-13.2"/>
		<line id="Línea_373" class="st0" x1="92.7" y1="107.6" x2="86.1" y2="117"/>
	</g>
</g>
</svg>
