<!-- Generator: Adobe Illustrator 25.4.0, SVG Export Plug-In . SVG Version: 6.00 Build 0)  -->
<svg version="1.1" id="Layer_1" xmlns="http://www.w3.org/2000/svg" xmlns:xlink="http://www.w3.org/1999/xlink" x="0px" y="0px"
	 viewBox="0 0 75.62 87.07" style="enable-background:new 0 0 75.62 87.07;" xml:space="preserve">
<style type="text/css">
	.st0{fill:#FF366C;}
	.st1{enable-background:new    ;}
	.st2{fill:#FFFFFF;}
</style>
<g id="Group_5571" transform="translate(775 223.268)">
	<path id="Path_6091" class="st0" d="M-699.38-213.27v54c0,5.52-4.48,10-10,10h-49.7l-12.51,12.49c-0.78,0.78-2.05,0.77-2.83-0.01
		c-0.37-0.37-0.58-0.88-0.58-1.4v-75.08c0-5.52,4.48-10,10-10h55.62C-703.86-223.27-699.38-218.79-699.38-213.27z"/>
	<g class="st1">
		<path class="st2" d="M-765.11-164.22c-0.12-0.06-0.21-0.13-0.29-0.21c-0.2-0.2-0.29-0.42-0.29-0.67c0-0.25,0.1-0.48,0.29-0.67
			l4.69-4.69c0.16-0.16,0.37-0.23,0.64-0.23s0.49,0.08,0.64,0.23c0.2,0.2,0.29,0.42,0.29,0.67c0,0.25-0.1,0.48-0.29,0.67l-4.69,4.69
			c-0.08,0.08-0.18,0.15-0.29,0.21s-0.23,0.09-0.35,0.09S-764.99-164.16-765.11-164.22z M-763.23-172.74
			c-0.12-0.04-0.21-0.1-0.29-0.18c-0.2-0.2-0.29-0.42-0.29-0.67c0-0.25,0.1-0.48,0.29-0.67l2.64-2.64c0.2-0.16,0.42-0.23,0.67-0.23
			s0.46,0.08,0.62,0.23c0.2,0.2,0.29,0.42,0.29,0.67c0,0.25-0.1,0.48-0.29,0.67l-2.58,2.64c-0.12,0.08-0.23,0.14-0.35,0.18
			c-0.12,0.04-0.23,0.06-0.35,0.06S-763.12-172.71-763.23-172.74z M-762.41-159.18c-0.12-0.06-0.21-0.13-0.29-0.21
			c-0.2-0.2-0.29-0.42-0.29-0.67c0-0.25,0.1-0.48,0.29-0.67l3.22-3.16c0.16-0.2,0.37-0.29,0.64-0.29s0.49,0.1,0.64,0.29
			c0.2,0.16,0.29,0.37,0.29,0.64c0,0.27-0.1,0.49-0.29,0.64l-3.16,3.22c-0.12,0.08-0.23,0.15-0.35,0.21s-0.23,0.09-0.35,0.09
			S-762.3-159.12-762.41-159.18z M-757.38-156.48c-0.12-0.06-0.21-0.13-0.29-0.21c-0.2-0.2-0.29-0.42-0.29-0.67
			c0-0.25,0.1-0.48,0.29-0.67l4.69-4.63c0.16-0.2,0.37-0.29,0.64-0.29s0.49,0.1,0.64,0.29c0.2,0.16,0.29,0.37,0.29,0.64
			c0,0.27-0.1,0.49-0.29,0.64l-4.69,4.69c-0.08,0.08-0.18,0.15-0.29,0.21s-0.23,0.09-0.35,0.09S-757.26-156.43-757.38-156.48z
			 M-711.12-209.31c-0.18-0.08-0.36-0.12-0.56-0.12c-1.48,0.08-2.96,0.23-4.42,0.44c-1.46,0.21-2.92,0.48-4.37,0.79
			c-1.09,0.23-2.53,0.61-4.31,1.11c-1.78,0.51-3.68,1.25-5.71,2.23c-1.17,0.59-2.61,1.44-4.31,2.55s-3.43,2.53-5.19,4.25
			c-0.51-0.31-1.12-0.59-1.85-0.85c-0.72-0.25-1.51-0.38-2.37-0.38c-0.98,0-1.83,0.13-2.55,0.38c-0.72,0.25-1.24,0.46-1.55,0.62
			c-1.56,0.78-2.73,1.74-3.52,2.87c-0.78,1.13-1.33,1.97-1.64,2.52c-0.47,0.94-0.85,1.91-1.14,2.93c-0.29,1.02-0.46,2.07-0.5,3.16
			c-0.04,0.27,0.02,0.54,0.18,0.79c0.16,0.25,0.37,0.42,0.64,0.5c0.08,0.04,0.16,0.07,0.23,0.09c0.08,0.02,0.16,0.03,0.23,0.03
			c0.2,0,0.38-0.04,0.56-0.12c0.18-0.08,0.34-0.2,0.5-0.35c0.12-0.2,0.46-0.52,1.03-0.97c0.57-0.45,1.3-0.71,2.2-0.79
			c0.39,0,0.76,0.04,1.11,0.12c0.35,0.08,0.66,0.18,0.94,0.29c-0.39,0.94-0.75,1.91-1.08,2.93c-0.33,1.02-0.62,2.03-0.85,3.05
			c-0.04,0.12-0.06,0.24-0.06,0.38c0,0.14,0.02,0.24,0.06,0.32c-0.7,0.43-1.47,1.02-2.31,1.76c-0.84,0.74-1.59,1.68-2.26,2.81
			c-0.74,1.33-1.22,2.62-1.44,3.87c-0.21,1.25-0.28,2.31-0.21,3.16c0,0.31,0.11,0.59,0.32,0.82s0.5,0.37,0.85,0.41
			c0.23,0.04,0.47,0.06,0.7,0.06s0.49,0,0.76,0c0.86,0,1.71-0.08,2.55-0.23c0.84-0.16,1.65-0.39,2.43-0.7
			c1.33-0.59,2.45-1.29,3.37-2.11s1.63-1.58,2.14-2.29c0.08,0,0.15,0.01,0.21,0.03c0.06,0.02,0.13,0.03,0.21,0.03
			c0.04,0,0.1,0,0.18,0c1.05-0.16,2.1-0.35,3.13-0.59s2.06-0.53,3.08-0.88c0.12,0.31,0.2,0.65,0.23,1.03c0.04,0.37,0.04,0.77,0,1.2
			c-0.16,0.9-0.48,1.6-0.97,2.11c-0.49,0.51-0.85,0.82-1.08,0.94c-0.23,0.16-0.4,0.37-0.5,0.64c-0.1,0.27-0.11,0.55-0.03,0.82
			c0.08,0.27,0.23,0.5,0.47,0.67s0.49,0.26,0.76,0.26c0.12,0,0.22,0.01,0.32,0.03c0.1,0.02,0.19,0.03,0.26,0.03
			c0.98,0,1.93-0.1,2.87-0.29c0.94-0.2,1.86-0.47,2.75-0.82c0.62-0.27,1.52-0.74,2.7-1.41c1.17-0.66,2.23-1.74,3.16-3.22
			c0.2-0.31,0.46-0.8,0.79-1.46c0.33-0.66,0.54-1.5,0.62-2.52c0.08-0.9,0.01-1.73-0.21-2.49s-0.44-1.4-0.67-1.9
			c1.88-1.6,3.44-3.19,4.69-4.78s2.23-2.94,2.93-4.07c1.21-1.95,2.15-3.8,2.81-5.54c0.66-1.74,1.15-3.11,1.46-4.13
			c0.47-1.41,0.87-2.83,1.2-4.28c0.33-1.44,0.6-2.89,0.79-4.34c0.04-0.2,0.03-0.39-0.03-0.59c-0.06-0.2-0.17-0.37-0.32-0.53
			C-710.79-209.13-710.94-209.23-711.12-209.31z M-751.13-170.4c-0.68,0.12-1.3,0.18-1.85,0.18c0.04-0.62,0.15-1.32,0.32-2.08
			s0.5-1.53,0.97-2.31c0.59-1.02,1.25-1.83,1.99-2.43c0.74-0.61,1.41-1.08,1.99-1.44l3.34,3.63c-0.43,0.62-1.03,1.3-1.79,2.02
			c-0.76,0.72-1.73,1.32-2.9,1.79C-749.76-170.73-750.45-170.52-751.13-170.4z M-749.46-190.26c-0.08,0-0.16,0.02-0.23,0.06
			c-0.43,0-0.83,0.05-1.2,0.15c-0.37,0.1-0.71,0.23-1.03,0.38c0.12-0.35,0.24-0.69,0.38-1.03c0.14-0.33,0.28-0.65,0.44-0.97
			c0.27-0.51,0.71-1.2,1.32-2.08s1.49-1.61,2.67-2.2c0.27-0.12,0.64-0.27,1.11-0.47c0.47-0.2,1.05-0.27,1.76-0.23
			c0.47,0,0.91,0.06,1.32,0.18s0.77,0.25,1.08,0.41c-0.27,0.31-0.55,0.64-0.82,0.97c-0.27,0.33-0.55,0.67-0.82,1.03
			c-0.12,0.2-0.24,0.39-0.38,0.59c-0.14,0.2-0.28,0.39-0.44,0.59c-0.04,0.04-0.07,0.07-0.09,0.09c-0.02,0.02-0.03,0.05-0.03,0.09
			c-0.12,0.2-0.23,0.38-0.35,0.56s-0.23,0.36-0.35,0.56c-0.04,0.04-0.08,0.09-0.12,0.15s-0.08,0.13-0.12,0.21
			c-0.12,0.16-0.22,0.32-0.32,0.5s-0.19,0.36-0.26,0.56c-0.04,0.08-0.08,0.15-0.12,0.21s-0.08,0.13-0.12,0.21
			c-0.04,0.04-0.07,0.07-0.09,0.09c-0.02,0.02-0.03,0.05-0.03,0.09c-0.39-0.16-0.83-0.3-1.32-0.44c-0.49-0.14-1.03-0.21-1.61-0.21
			C-749.31-190.26-749.39-190.26-749.46-190.26z M-748.82-158.36c-0.12-0.06-0.21-0.13-0.29-0.21c-0.2-0.2-0.29-0.42-0.29-0.67
			c0-0.25,0.1-0.48,0.29-0.67l2.58-2.64c0.2-0.16,0.42-0.23,0.67-0.23s0.48,0.08,0.67,0.23c0.2,0.2,0.29,0.42,0.29,0.67
			c0,0.25-0.1,0.48-0.29,0.67l-2.64,2.64c-0.08,0.08-0.18,0.15-0.29,0.21s-0.23,0.09-0.35,0.09S-748.7-158.3-748.82-158.36z
			 M-741.79-175.85l-4.63-5.1l-0.29-0.35c0.16-0.7,0.35-1.4,0.59-2.08c0.23-0.68,0.49-1.36,0.76-2.02l7.97,8.79
			c-0.66,0.23-1.35,0.43-2.05,0.59c-0.7,0.16-1.41,0.29-2.11,0.41L-741.79-175.85z M-720.93-187.98c-0.86,1.17-1.91,2.36-3.16,3.57
			c-1.25,1.21-2.71,2.4-4.39,3.57c-1.64,1.17-3.5,2.19-5.57,3.05c-0.12,0.04-0.22,0.09-0.32,0.15s-0.19,0.09-0.26,0.09l-9.55-10.43
			c0.04-0.08,0.09-0.18,0.15-0.29s0.11-0.21,0.15-0.29l0.06-0.06c0.12-0.23,0.23-0.46,0.35-0.67c0.12-0.21,0.23-0.42,0.35-0.62
			c0.04-0.04,0.06-0.07,0.06-0.09c0-0.02,0.02-0.05,0.06-0.09c0.08-0.12,0.15-0.22,0.21-0.32c0.06-0.1,0.13-0.21,0.21-0.32
			c0.04-0.04,0.08-0.09,0.12-0.15s0.08-0.13,0.12-0.21c0.08-0.12,0.16-0.23,0.23-0.35s0.16-0.23,0.23-0.35
			c0.04-0.08,0.09-0.16,0.15-0.23c0.06-0.08,0.13-0.16,0.21-0.23c0.08-0.12,0.17-0.23,0.26-0.35s0.19-0.23,0.26-0.35
			c0.16-0.2,0.3-0.38,0.44-0.56s0.28-0.34,0.44-0.5c0.08-0.12,0.17-0.22,0.26-0.32c0.1-0.1,0.19-0.21,0.26-0.32
			c0.12-0.12,0.23-0.23,0.35-0.35s0.23-0.25,0.35-0.41l0.06-0.06c1.72-1.8,3.45-3.27,5.19-4.42c1.74-1.15,3.19-2,4.37-2.55
			c1.68-0.86,3.28-1.51,4.8-1.96c1.52-0.45,2.83-0.79,3.93-1.03l5.51,6.09c-0.31,1.02-0.76,2.26-1.35,3.72s-1.39,3.02-2.4,4.66
			C-719.37-190.11-720.07-189.11-720.93-187.98z M-726.38-174.85c-0.23,0.47-0.43,0.82-0.59,1.05c-0.7,1.13-1.52,1.96-2.46,2.49
			s-1.66,0.89-2.17,1.08c-0.35,0.16-0.69,0.28-1.03,0.38c-0.33,0.1-0.67,0.19-1.03,0.26c0.2-0.31,0.35-0.64,0.47-1
			s0.21-0.74,0.29-1.17c0.12-0.66,0.14-1.29,0.06-1.88s-0.2-1.11-0.35-1.58c0.47-0.2,0.93-0.39,1.38-0.59
			c0.45-0.2,0.91-0.41,1.38-0.64c0.7-0.39,1.4-0.8,2.08-1.23c0.68-0.43,1.36-0.88,2.02-1.35c0.12,0.35,0.21,0.73,0.29,1.14
			s0.1,0.85,0.06,1.32C-726.01-175.89-726.14-175.32-726.38-174.85z M-728.02-188.68h-0.06c-0.7,0-1.37-0.14-1.99-0.41
			c-0.62-0.27-1.19-0.66-1.7-1.17c-0.47-0.47-0.83-1.03-1.08-1.67s-0.38-1.3-0.38-1.96c0-0.7,0.14-1.37,0.41-1.99
			c0.27-0.62,0.66-1.19,1.17-1.7c0.47-0.47,1.03-0.83,1.67-1.08c0.64-0.25,1.3-0.38,1.96-0.38c0.7,0,1.37,0.14,1.99,0.41
			c0.62,0.27,1.19,0.64,1.7,1.11c0.47,0.51,0.83,1.08,1.08,1.7c0.25,0.62,0.38,1.29,0.38,1.99s-0.14,1.37-0.41,1.99
			c-0.27,0.62-0.64,1.19-1.11,1.7c-0.51,0.47-1.07,0.83-1.7,1.08C-726.71-188.81-727.36-188.68-728.02-188.68z M-729.02-196.24
			c-0.31,0.12-0.59,0.29-0.82,0.53c-0.51,0.51-0.76,1.11-0.76,1.82s0.25,1.31,0.76,1.82c0.47,0.51,1.05,0.76,1.76,0.76
			s1.31-0.25,1.82-0.76c0.51-0.47,0.76-1.05,0.76-1.76s-0.23-1.31-0.7-1.82c-0.27-0.27-0.57-0.47-0.88-0.59s-0.64-0.18-1-0.18
			C-728.39-196.42-728.7-196.36-729.02-196.24z M-717.59-206.08c0.7-0.12,1.44-0.23,2.2-0.35s1.49-0.2,2.2-0.23
			c-0.12,0.74-0.25,1.47-0.41,2.2c-0.16,0.72-0.33,1.46-0.53,2.2L-717.59-206.08z"/>
	</g>
</g>
</svg>
