<!-- Generator: Adobe Illustrator 25.4.0, SVG Export Plug-In . SVG Version: 6.00 Build 0)  -->
<svg version="1.1" id="Layer_1" xmlns="http://www.w3.org/2000/svg" xmlns:xlink="http://www.w3.org/1999/xlink" x="0px" y="0px"
	 viewBox="0 0 75.62 87.07" style="enable-background:new 0 0 75.62 87.07;" xml:space="preserve">
<style type="text/css">
	.st0{fill:#FF366C;}
	.st1{enable-background:new    ;}
	.st2{fill:#FFFFFF;}
</style>
<g id="Group_6082" transform="translate(-329 -1804.564)">
	<g id="Group_5570" transform="translate(329 1804.564)">
		<path id="Path_4559" class="st0" d="M75.62,10v54c0,5.52-4.48,10-10,10h-49.7L3.41,86.49c-0.78,0.78-2.05,0.77-2.83-0.01
			C0.21,86.11,0,85.61,0,85.08V10C0,4.48,4.48,0,10,0h55.62C71.14,0,75.62,4.48,75.62,10z"/>
	</g>
	<g class="st1">
		<path class="st2" d="M385.36,1823.76c-0.23,0-0.47-0.02-0.7-0.06c-0.23-0.04-0.47-0.1-0.7-0.18l-2.17,2.05
			c0.98,1.64,1.74,3.41,2.29,5.3c0.55,1.9,0.82,3.86,0.82,5.89c0,2.11-0.28,4.13-0.85,6.06c-0.57,1.93-1.38,3.74-2.43,5.42
			l10.78,10.78c0.51,0.47,0.89,1.04,1.14,1.7c0.25,0.67,0.38,1.35,0.38,2.05s-0.14,1.38-0.41,2.02c-0.27,0.64-0.66,1.22-1.17,1.73
			c-0.51,0.51-1.08,0.9-1.73,1.17c-0.64,0.27-1.34,0.41-2.08,0.41c-0.7,0-1.38-0.13-2.02-0.38c-0.64-0.25-1.22-0.63-1.73-1.14
			l-10.9-10.96c-1.56,0.9-3.23,1.58-5.01,2.05c-1.78,0.47-3.62,0.7-5.54,0.7c-3.01,0-5.82-0.57-8.44-1.7
			c-2.62-1.13-4.9-2.67-6.86-4.63c-1.95-1.95-3.5-4.24-4.63-6.86c-1.13-2.62-1.7-5.43-1.7-8.44c0-2.97,0.57-5.76,1.7-8.38
			c1.13-2.62,2.68-4.9,4.63-6.86c1.95-1.95,4.24-3.5,6.86-4.63c2.62-1.13,5.43-1.7,8.44-1.7c1.68,0,3.34,0.2,4.98,0.59
			c1.6,0.39,3.12,0.94,4.57,1.64c1.44,0.7,2.79,1.56,4.04,2.58c1.21,1.02,2.32,2.15,3.34,3.4l1.64-1.58c-0.2-0.31-0.35-0.64-0.47-1
			s-0.18-0.72-0.18-1.11c0-1.13,0.4-2.09,1.2-2.87c0.8-0.78,1.77-1.17,2.9-1.17c0.86,0,1.64,0.25,2.34,0.76
			c0.7,0.51,1.19,1.15,1.46,1.93h4.75c0.35,0,0.65,0.14,0.91,0.41c0.25,0.27,0.38,0.59,0.38,0.94s-0.13,0.65-0.38,0.91
			c-0.25,0.25-0.56,0.38-0.91,0.38h-4.75c-0.27,0.82-0.76,1.49-1.46,1.99C387,1823.51,386.22,1823.76,385.36,1823.76z
			 M382.31,1836.77c0-1.68-0.23-3.31-0.67-4.89c-0.45-1.58-1.06-3.06-1.85-4.42l-3.63,3.46c0.08,0.23,0.15,0.48,0.21,0.73
			c0.06,0.25,0.09,0.52,0.09,0.79c0,1.13-0.4,2.09-1.2,2.87c-0.8,0.78-1.75,1.17-2.84,1.17c-0.23,0-0.46-0.02-0.67-0.06
			c-0.22-0.04-0.42-0.1-0.62-0.18l-6.86,6.62c0.12,0.27,0.21,0.56,0.29,0.85c0.08,0.29,0.12,0.6,0.12,0.91c0,1.13-0.4,2.1-1.2,2.9
			c-0.8,0.8-1.75,1.2-2.84,1.2c-1.13,0-2.1-0.4-2.9-1.2c-0.8-0.8-1.2-1.77-1.2-2.9c0-0.31,0.04-0.61,0.12-0.88
			c0.08-0.27,0.18-0.55,0.29-0.82l-3.57-3.63c-0.27,0.16-0.57,0.26-0.88,0.32c-0.31,0.06-0.63,0.09-0.94,0.09
			c-0.86,0-1.64-0.25-2.34-0.76c-0.7-0.51-1.19-1.17-1.46-1.99h-3.4c0,2.62,0.51,5.06,1.52,7.32c1.02,2.31,2.37,4.31,4.07,6.01
			s3.7,3.04,6.01,4.01c2.3,0.98,4.77,1.46,7.38,1.46c2.62,0,5.08-0.49,7.38-1.46c2.3-1.02,4.32-2.38,6.04-4.1
			c1.72-1.72,3.07-3.73,4.04-6.04C381.8,1841.85,382.31,1839.39,382.31,1836.77z M363.33,1817.79c-2.42,0-4.71,0.43-6.86,1.29
			c-2.15,0.86-4.06,2.03-5.74,3.52c-1.68,1.49-3.07,3.24-4.16,5.27c-1.09,1.99-1.8,4.16-2.11,6.5h3.28
			c0.27-0.82,0.76-1.48,1.46-1.99c0.7-0.51,1.48-0.76,2.34-0.76c1.13,0,2.09,0.39,2.87,1.17c0.78,0.78,1.17,1.74,1.17,2.87
			c0,0.31-0.03,0.62-0.09,0.94c-0.06,0.31-0.17,0.61-0.32,0.88l3.57,3.57c0.27-0.16,0.57-0.27,0.88-0.35c0.31-0.08,0.64-0.12,1-0.12
			c0.27,0,0.57,0.04,0.88,0.12c0.31,0.08,0.6,0.18,0.88,0.29l6.62-6.33c-0.23-0.31-0.41-0.66-0.53-1.05
			c-0.12-0.39-0.18-0.78-0.18-1.17c0-1.13,0.4-2.09,1.2-2.87c0.8-0.78,1.77-1.17,2.9-1.17c0.35,0,0.7,0.05,1.05,0.15
			c0.35,0.1,0.66,0.23,0.94,0.38l3.93-3.69c-1.72-2.26-3.89-4.07-6.5-5.42C369.21,1818.46,366.38,1817.79,363.33,1817.79z
			 M352.58,1834.66c-0.29-0.27-0.64-0.41-1.03-0.41c-0.39,0-0.72,0.14-1,0.41c-0.27,0.27-0.41,0.61-0.41,1c0,0.39,0.14,0.72,0.41,1
			c0.27,0.27,0.6,0.41,1,0.41c0.39,0,0.73-0.14,1.03-0.41c0.29-0.27,0.44-0.61,0.44-1C353.02,1835.27,352.87,1834.93,352.58,1834.66
			z M361.63,1843.62c-0.27-0.27-0.61-0.41-1-0.41c-0.43,0-0.78,0.14-1.05,0.41c-0.27,0.27-0.41,0.61-0.41,1
			c0,0.39,0.14,0.73,0.41,1.03c0.27,0.29,0.62,0.44,1.05,0.44c0.39,0,0.72-0.15,1-0.44c0.27-0.29,0.41-0.63,0.41-1.03
			C362.04,1844.23,361.9,1843.9,361.63,1843.62z M373.41,1831.41c-0.27-0.29-0.61-0.44-1-0.44c-0.39,0-0.73,0.15-1.03,0.44
			s-0.44,0.64-0.44,1.03c0,0.39,0.15,0.72,0.44,1c0.29,0.27,0.63,0.41,1.03,0.41c0.39,0,0.72-0.14,1-0.41
			c0.27-0.27,0.41-0.61,0.41-1C373.82,1832.04,373.68,1831.7,373.41,1831.41z M380.09,1850.42c-0.59,0.7-1.21,1.37-1.88,1.99
			c-0.66,0.62-1.37,1.21-2.11,1.76l2.87,2.87l3.87-3.87L380.09,1850.42z M391.07,1861.73c-0.14-0.31-0.32-0.61-0.56-0.88l-5.86-5.8
			l-3.81,3.87l5.8,5.8c0.23,0.27,0.52,0.48,0.85,0.62c0.33,0.14,0.67,0.19,1.03,0.15c0.35,0,0.69-0.07,1.03-0.21
			c0.33-0.14,0.63-0.34,0.91-0.62c0.27-0.23,0.48-0.52,0.62-0.85c0.14-0.33,0.21-0.69,0.21-1.08
			C391.28,1862.38,391.21,1862.04,391.07,1861.73z M384.33,1818.69c-0.29,0.29-0.44,0.64-0.44,1.03c0,0.39,0.15,0.72,0.44,1
			c0.29,0.27,0.63,0.41,1.03,0.41c0.39,0,0.72-0.14,1-0.41c0.27-0.27,0.41-0.61,0.41-1c0-0.39-0.14-0.73-0.41-1.03
			c-0.27-0.29-0.61-0.44-1-0.44C384.97,1818.25,384.63,1818.4,384.33,1818.69z"/>
	</g>
</g>
</svg>
