<svg xmlns="http://www.w3.org/2000/svg" width="160" height="41" viewBox="0 0 160 41">
  <g fill="none" fill-rule="evenodd">
    <path fill="#0B003B" d="M64.831 40.104c-5.03 0-7.605-2.409-8.879-4.43a1.87 1.87 0 1 1 3.164-1.994c1.123 1.78 3.046 2.684 5.715 2.684a1.87 1.87 0 1 1 0 3.74M9.87 9.143c-2.554 0-4.883 1.247-6.13 2.832V1.87a1.87 1.87 0 1 0-3.74 0v26.805a1.87 1.87 0 1 0 3.74 0V20.78c0-5.195 2.292-7.896 6.13-7.896S16 15.835 16 20.78v7.896a1.87 1.87 0 1 0 3.74 0v-8.104c0-6.649-3.324-11.428-9.87-11.428m27.325 3.739a7.073 7.073 0 0 0-7.065 7.065 7.073 7.073 0 0 0 7.065 7.065 7.073 7.073 0 0 0 7.065-7.065 7.073 7.073 0 0 0-7.065-7.065m0 17.87c-5.958 0-10.805-4.847-10.805-10.805 0-5.958 4.847-10.805 10.805-10.805C43.153 9.143 48 13.99 48 19.948c0 5.958-4.847 10.805-10.805 10.805m27.636-17.87a7.073 7.073 0 0 0-7.065 7.065 7.073 7.073 0 0 0 7.065 7.065 7.073 7.073 0 0 0 7.065-7.065 7.073 7.073 0 0 0-7.065-7.065m0 17.87c-5.958 0-10.805-4.847-10.805-10.805 0-5.958 4.847-10.805 10.805-10.805 5.958 0 10.805 4.847 10.805 10.805 0 5.958-4.847 10.805-10.805 10.805"/>
    <path fill="#0B003B" d="M64.831 40.104a1.87 1.87 0 1 1 0-3.74c7.065 0 7.273-6.65 7.273-8.728l-.208-7.688a1.87 1.87 0 1 1 3.74 0v8.52c0 1.635-.268 4.774-2.064 7.415-1.309 1.925-3.888 4.22-8.74 4.22"/>
    <path fill="#FF366C" d="M121.558 12.883a7.073 7.073 0 0 0-7.064 7.065 7.073 7.073 0 0 0 7.064 7.065 7.073 7.073 0 0 0 7.065-7.065 7.073 7.073 0 0 0-7.065-7.065m0 17.87c-5.958 0-10.805-4.847-10.805-10.805 0-5.958 4.847-10.805 10.805-10.805 5.958 0 10.806 4.847 10.806 10.805 0 5.958-4.848 10.805-10.806 10.805"/>
    <path fill="#FF366C" d="M130.494 30.753h-8.936a1.87 1.87 0 1 1 0-3.74h7.065v-7.065a1.87 1.87 0 1 1 3.74 0v8.935a1.87 1.87 0 0 1-1.87 1.87"/>
    <path fill="#0B003B" d="M140.883 30.753a1.87 1.87 0 0 1-1.345-3.169l17.246-17.87a1.87 1.87 0 0 1 2.692 2.598l-17.247 17.87c-.367.38-.857.571-1.346.571"/>
    <path fill="#0B003B" d="M158.13 30.753c-.49 0-.979-.19-1.346-.571l-17.247-17.87a1.87 1.87 0 0 1 2.692-2.598l17.247 17.87a1.87 1.87 0 0 1-1.346 3.17M93.299 12.883a7.073 7.073 0 0 0-7.065 7.065 7.073 7.073 0 0 0 7.065 7.065 7.073 7.073 0 0 0 7.065-7.065 7.073 7.073 0 0 0-7.065-7.065m0 17.87c-5.958 0-10.805-4.847-10.805-10.805 0-5.958 4.847-10.805 10.805-10.805 5.958 0 10.805 4.847 10.805 10.805 0 5.958-4.847 10.805-10.805 10.805"/>
    <path fill="#0B003B" d="M93.299 40.104a1.87 1.87 0 1 1 0-3.74c7.065 0 7.272-6.65 7.272-8.728l-.207-7.688a1.87 1.87 0 1 1 3.74 0v8.52c0 1.635-.268 4.774-2.064 7.415-1.31 1.925-3.889 4.22-8.741 4.22"/>
    <path fill="#0B003B" d="M93.299 40.104c-5.03 0-7.605-2.409-8.88-4.43a1.87 1.87 0 1 1 3.165-1.994c1.122 1.78 3.045 2.684 5.715 2.684a1.87 1.87 0 1 1 0 3.74"/>
  </g>
</svg>
